<svg width="10" height="6" viewBox="0 0 10 6" fill="none" xmlns="http://www.w3.org/2000/svg">
<path d="M9.88186 0.290969C9.80741 0.26354 9.68851 0.206527 9.54681 0.172198C9.40512 0.135886 9.21367 0.0755085 9.01841 0.0603279C8.82116 0.041611 8.59818 0.0360909 8.35449 0.0467862C8.1166 0.0643819 7.87509 0.110269 7.61612 0.171077C7.35742 0.231713 7.12076 0.332629 6.86796 0.443033C6.62123 0.557232 6.39635 0.699722 6.17118 0.854892C5.95836 1.01515 5.75645 1.19257 5.57184 1.38121C5.39966 1.57502 5.22853 1.77444 5.09671 1.98722C4.96081 2.19854 4.84362 2.41616 4.75882 2.63869C4.57743 3.07927 4.50516 3.53262 4.49756 3.93637C4.49822 4.14122 4.51152 4.33132 4.53944 4.50599C4.56385 4.67961 4.61171 4.83987 4.64865 4.96942C4.66356 5.03023 4.68455 5.08837 4.70525 5.13977C4.74163 5.07043 4.78113 4.99728 4.8252 4.91724C5.0441 4.52289 5.36319 4.00934 5.73632 3.52839C5.92217 3.28757 6.12607 3.05857 6.32484 2.85156C6.43016 2.75211 6.53196 2.65646 6.62807 2.56572C6.73139 2.48145 6.82893 2.40158 6.91829 2.32809C7.01525 2.26194 7.10357 2.20173 7.18221 2.14808C7.25761 2.09124 7.33653 2.05821 7.39569 2.02405C7.5163 1.95919 7.58516 1.92219 7.58516 1.92219C7.58516 1.92219 7.51953 1.96428 7.4051 2.03708C7.34945 2.07572 7.27471 2.11324 7.20452 2.17491C7.13178 2.23322 7.04982 2.29885 6.96017 2.37044C6.87802 2.44945 6.78923 2.53424 6.69531 2.62429C6.60889 2.71994 6.51753 2.82086 6.42332 2.9254C6.24554 3.14293 6.06681 3.38021 5.90593 3.62879C5.582 4.12371 5.31495 4.64718 5.13527 5.04558C5.08475 5.1578 5.0422 5.25811 5.00564 5.34669C5.08256 5.32806 5.18028 5.30831 5.2857 5.27295C5.41941 5.23077 5.59206 5.1873 5.7594 5.12528C5.93072 5.06577 6.11334 4.99547 6.29758 4.91543C6.48476 4.83659 6.6671 4.74396 6.8539 4.64649C7.04051 4.54946 7.21725 4.43845 7.39285 4.32425C7.56341 4.20557 7.73274 4.08567 7.88639 3.95293C8.03825 3.81648 8.19162 3.68848 8.3242 3.54055C8.59685 3.25687 8.82914 2.95343 9.01841 2.63317C9.11689 2.48232 9.19876 2.3067 9.279 2.148C9.3602 1.9905 9.42915 1.81575 9.49781 1.65549C9.56704 1.49817 9.63105 1.33877 9.68756 1.18352C9.749 1.0236 9.80266 0.884218 9.8472 0.769674C9.89857 0.655733 9.93067 0.536618 9.95964 0.466494C9.98633 0.387313 10 0.345481 10 0.345481C10 0.345481 9.95859 0.32271 9.88186 0.290969Z" fill="black"/>
<path d="M3.83954 3.87263C3.57439 3.70375 3.32254 3.51847 3.09452 3.33777C2.98531 3.24272 2.87989 3.15 2.7798 3.06271C2.68682 2.96886 2.59945 2.88028 2.51788 2.79911C2.44522 2.71139 2.37913 2.63049 2.31977 2.55941C2.25719 2.49084 2.22129 2.41925 2.1834 2.36552C2.11179 2.25623 2.07115 2.19344 2.07115 2.19344C2.07115 2.19344 2.11749 2.25304 2.19802 2.35698C2.2399 2.40744 2.2815 2.47523 2.34978 2.53897C2.41398 2.6053 2.48616 2.67974 2.56507 2.76116C2.65187 2.83551 2.74542 2.91642 2.84456 3.00138C2.94969 3.07987 3.06119 3.16285 3.1761 3.24841C3.41532 3.40928 3.67686 3.57221 3.95037 3.71832C4.06357 3.77974 4.17829 3.83373 4.29263 3.88919C4.33043 3.33372 4.45598 2.78462 4.64392 2.28452C4.53623 2.15808 4.42701 2.03361 4.30688 1.91967C4.15674 1.78149 4.01637 1.64219 3.85293 1.52195C3.54039 1.27432 3.20668 1.06343 2.85416 0.891263C2.68806 0.801817 2.49442 0.727466 2.31968 0.654668C2.14665 0.580921 1.95443 0.518042 1.77789 0.456025C1.60447 0.393405 1.42916 0.335442 1.25803 0.284121C1.08206 0.227883 0.928968 0.17915 0.802376 0.138696C0.676923 0.0922918 0.545487 0.0628791 0.468563 0.0365717C0.381763 0.0126793 0.335513 0 0.335513 0C0.335513 0 0.309777 0.0380381 0.274544 0.107645C0.244629 0.175096 0.18176 0.283258 0.143773 0.411949C0.103982 0.540209 0.0373143 0.714183 0.0210748 0.891608C8.69089e-05 1.07093 -0.00589607 1.27371 0.00616485 1.49495C0.0249685 1.71085 0.0753964 1.92985 0.142539 2.16541C0.209776 2.40019 0.320603 2.61539 0.441972 2.84517C0.5679 3.06866 0.724597 3.27291 0.896014 3.47776C1.07237 3.6714 1.26772 3.85469 1.47532 4.02263C1.68833 4.17849 1.90837 4.334 2.14304 4.45416C2.37523 4.57759 2.61493 4.68411 2.85985 4.76088C3.34476 4.92588 3.84391 4.99143 4.28884 4.9985C4.30783 4.9985 4.32407 4.99669 4.34211 4.99618C4.29453 4.71309 4.27725 4.42414 4.28314 4.13398C4.13546 4.04971 3.98712 3.96708 3.83954 3.87263Z" fill="black"/>
</svg>
