<svg width="56" height="56" viewBox="0 0 56 56" fill="none" xmlns="http://www.w3.org/2000/svg">
<path d="M41.125 2.625C39.4153 3.76481 38.0914 5.39633 37.3283 7.30417L36.75 8.75L37.625 12.25L39.7867 8.46705C40.6637 6.93226 41.125 5.19517 41.125 3.42748V2.625Z" fill="#027E2A"/>
<path d="M38.3233 14.9091C38.2617 14.6854 38.1139 14.4953 37.9121 14.3806C37.7104 14.2659 37.4714 14.236 37.2477 14.2975L36.5914 14.4779C37.2759 12.0442 37.6237 9.52813 37.625 7C37.625 6.76794 37.5328 6.54538 37.3688 6.38128C37.2047 6.21719 36.9821 6.125 36.75 6.125C36.518 6.125 36.2954 6.21719 36.1313 6.38128C35.9672 6.54538 35.875 6.76794 35.875 7C35.8696 12.9941 33.7945 18.8024 30.0006 23.443L29.7121 22.4953C29.6426 22.2755 29.4893 22.0921 29.2854 21.9847C29.0815 21.8774 28.8435 21.8548 28.623 21.9219C28.4026 21.989 28.2175 22.1403 28.1079 22.3431C27.9984 22.5458 27.9733 22.7836 28.038 23.0047L28.6929 25.1562C26.6548 28.0506 25.1885 31.3076 24.3726 34.7523L24.0462 34.4023C23.9678 34.3182 23.8736 34.2505 23.769 34.2029C23.6644 34.1552 23.5515 34.1287 23.4366 34.1247C23.3218 34.1207 23.2072 34.1394 23.0996 34.1797C22.992 34.22 22.8933 34.2811 22.8093 34.3595C22.7253 34.4379 22.6575 34.5321 22.6099 34.6367C22.5623 34.7413 22.5357 34.8542 22.5317 34.9691C22.5278 35.084 22.5465 35.1985 22.5868 35.3061C22.627 35.4137 22.6881 35.5124 22.7665 35.5964L23.9562 36.871C23.7361 38.2783 23.6254 39.7006 23.625 41.125V47.7625L23.3688 47.5063C23.2875 47.425 23.191 47.3606 23.0849 47.3166C22.9787 47.2726 22.8649 47.25 22.75 47.25C22.6351 47.25 22.5213 47.2726 22.4152 47.3166C22.309 47.3606 22.2125 47.425 22.1313 47.5063C22.05 47.5875 21.9856 47.684 21.9416 47.7901C21.8976 47.8963 21.875 48.0101 21.875 48.125C21.875 48.2399 21.8976 48.3537 21.9416 48.4599C21.9856 48.566 22.05 48.6625 22.1313 48.7437L23.625 50.2375V53.375C23.625 53.6071 23.7172 53.8296 23.8813 53.9937C24.0454 54.1578 24.268 54.25 24.5 54.25C24.7321 54.25 24.9547 54.1578 25.1187 53.9937C25.2828 53.8296 25.375 53.6071 25.375 53.375V50.2375L26.8688 48.7437C26.95 48.6625 27.0145 48.566 27.0584 48.4599C27.1024 48.3537 27.1251 48.2399 27.1251 48.125C27.1251 48.0101 27.1024 47.8963 27.0584 47.7901C27.0145 47.684 26.95 47.5875 26.8688 47.5063C26.7875 47.425 26.691 47.3606 26.5849 47.3166C26.4787 47.2726 26.3649 47.25 26.25 47.25C26.1351 47.25 26.0213 47.2726 25.9152 47.3166C25.809 47.3606 25.7125 47.425 25.6313 47.5063L25.375 47.7625V41.125C25.3753 39.847 25.4703 38.5708 25.6594 37.3069L27.3176 36.6961C27.5354 36.6158 27.7124 36.4524 27.8096 36.2417C27.9069 36.031 27.9164 35.7902 27.8362 35.5725C27.7559 35.3547 27.5925 35.1777 27.3818 35.0805C27.1711 34.9832 26.9303 34.9737 26.7126 35.0539L26.0409 35.3014C26.7985 32.019 28.1857 28.9148 30.1256 26.1608L32.3395 26.2492C32.3515 26.2492 32.3632 26.25 32.375 26.25C32.6038 26.2495 32.8232 26.1594 32.9863 25.9991C33.1494 25.8387 33.2433 25.6209 33.2478 25.3922C33.2523 25.1636 33.1671 24.9422 33.0104 24.7756C32.8537 24.609 32.638 24.5103 32.4095 24.5008L31.4267 24.4614C33.3691 22.0674 34.8983 19.3661 35.9516 16.4688L37.712 15.9848C37.9357 15.9232 38.1257 15.7753 38.2404 15.5736C38.355 15.3718 38.3848 15.1328 38.3233 14.9091Z" fill="#027E2A"/>
<path d="M32.7764 22.75C33.1245 22.75 33.4584 22.6117 33.7045 22.3656C33.9507 22.1194 34.0889 21.7856 34.0889 21.4375V17.6225C34.0889 16.9767 33.869 16.3502 33.4655 15.846L30.5889 12.25L30.5829 12.256C30.0989 12.7401 29.8057 13.3825 29.7572 14.0653C29.7086 14.7481 29.908 15.4255 30.3188 15.9731L30.8952 16.7417C31.2644 17.2339 31.464 17.8326 31.4639 18.448V21.4375C31.4639 21.7856 31.6022 22.1194 31.8484 22.3656C32.0945 22.6117 32.4283 22.75 32.7764 22.75Z" fill="#029532"/>
<path d="M36.2764 13.125C36.6245 13.125 36.9584 12.9867 37.2045 12.7406C37.4507 12.4944 37.5889 12.1606 37.5889 11.8125V7.9975C37.5889 7.35173 37.369 6.72523 36.9655 6.22103L34.0889 2.625L34.0829 2.63102C33.5989 3.11506 33.3057 3.75746 33.2572 4.44028C33.2086 5.12309 33.408 5.8005 33.8188 6.34812L34.3952 7.1167C34.7644 7.60892 34.964 8.20764 34.9639 8.82295V11.8125C34.9639 12.1606 35.1022 12.4944 35.3484 12.7406C35.5945 12.9867 35.9283 13.125 36.2764 13.125Z" fill="#029532"/>
<path d="M31.6218 21.9826C31.5494 21.8262 31.5085 21.6571 31.5014 21.4848C31.4944 21.3126 31.5214 21.1407 31.5808 20.9789C31.6402 20.8171 31.7309 20.6686 31.8477 20.5418C31.9645 20.4151 32.1052 20.3126 32.2616 20.2402L35.7238 18.6375C36.3098 18.3663 36.9707 18.3026 37.5977 18.4569L42.0695 19.5575L42.0665 19.5655C41.8305 20.208 41.3707 20.7439 40.7714 21.0747C40.1722 21.4055 39.4737 21.509 38.8042 21.3663L37.8646 21.166C37.2628 21.0377 36.6357 21.108 36.0773 21.3664L33.3641 22.622C33.0483 22.7683 32.6873 22.783 32.3605 22.6631C32.0338 22.5432 31.768 22.2985 31.6218 21.9826Z" fill="#02A437"/>
<path d="M26.0106 33.2452C26.3574 33.2157 26.6783 33.0497 26.9028 32.7836C27.1272 32.5175 27.2367 32.1732 27.2073 31.8264L26.8844 28.025C26.8298 27.3817 26.5578 26.7761 26.1132 26.3079L22.9422 22.9682L22.9367 22.9747C22.4954 23.4979 22.2576 24.1628 22.2671 24.8473C22.2765 25.5317 22.5325 26.1898 22.9881 26.7007L23.6276 27.4178C24.037 27.8769 24.2865 28.4564 24.3386 29.0694L24.5917 32.0482C24.6062 32.2199 24.6545 32.3872 24.7337 32.5403C24.8128 32.6934 24.9214 32.8294 25.0532 32.9406C25.1849 33.0517 25.3373 33.1359 25.5016 33.1881C25.6659 33.2404 25.8388 33.2598 26.0106 33.2452Z" fill="#029532"/>
<path d="M24.7953 32.5783C24.6229 32.2759 24.5777 31.9174 24.6696 31.5817C24.7615 31.246 24.983 30.9605 25.2854 30.7881L28.5995 28.8984C29.1605 28.5786 29.8136 28.4592 30.4514 28.5599L35 29.2779L34.9977 29.2861C34.817 29.9464 34.4041 30.5192 33.835 30.8996C33.2659 31.2799 32.5787 31.4422 31.8996 31.3567L30.9463 31.2364C30.3358 31.1595 29.7169 31.2827 29.1823 31.5875L26.5852 33.0684C26.2829 33.2407 25.9245 33.2859 25.5888 33.194C25.2531 33.1021 24.9677 32.8806 24.7953 32.5783V32.5783Z" fill="#02A437"/>
<path d="M35.2667 12.8993C35.1565 12.7666 35.0736 12.6136 35.0226 12.449C34.9716 12.2843 34.9536 12.1112 34.9695 11.9395C34.9854 11.7679 35.035 11.6011 35.1154 11.4486C35.1958 11.2961 35.3054 11.1609 35.4381 11.0508L38.3733 8.61383C38.8701 8.20137 39.4925 7.97028 40.1381 7.95857L44.7428 7.87479L44.742 7.88321C44.6788 8.56475 44.3719 9.20064 43.8776 9.67415C43.3834 10.1477 42.7349 10.427 42.0513 10.461L41.0918 10.5084C40.4772 10.5388 39.8891 10.7677 39.4157 11.1607L37.1156 13.0704C36.9829 13.1806 36.8299 13.2636 36.6652 13.3147C36.5005 13.3657 36.3274 13.3838 36.1557 13.3679C35.984 13.352 35.8171 13.3025 35.6645 13.222C35.512 13.1416 35.3768 13.0319 35.2667 12.8993Z" fill="#02A437"/>
<path d="M25.0151 44.4479C25.1642 44.3615 25.2949 44.2466 25.3996 44.1097C25.5044 43.9728 25.5811 43.8166 25.6255 43.65C25.6698 43.4834 25.6809 43.3098 25.6582 43.1389C25.6354 42.968 25.5792 42.8033 25.4928 42.6542L23.5803 39.3531C23.2566 38.7943 22.7524 38.3623 22.1505 38.1281L17.8584 36.4587L17.8562 36.4669C17.6801 37.1284 17.7484 37.8313 18.0488 38.4464C18.3491 39.0616 18.8612 39.5477 19.4912 39.8157L20.3753 40.1917C20.9414 40.4326 21.4142 40.8506 21.7228 41.3829L23.2212 43.9697C23.3076 44.1189 23.4225 44.2497 23.5594 44.3545C23.6963 44.4592 23.8525 44.536 24.0191 44.5804C24.1856 44.6248 24.3593 44.636 24.5302 44.6133C24.7011 44.5905 24.8659 44.5343 25.0151 44.4479Z" fill="#029532"/>
<path d="M23.6313 44.3625C23.4902 44.2634 23.37 44.1376 23.2776 43.9921C23.1852 43.8466 23.1224 43.6843 23.0927 43.5145C23.063 43.3447 23.067 43.1708 23.1045 43.0025C23.1421 42.8343 23.2124 42.6751 23.3115 42.5341L25.5039 39.4121C25.8751 38.8836 26.4151 38.4972 27.0351 38.3164L31.4561 37.0268L31.4575 37.0352C31.5754 37.7095 31.4462 38.4037 31.0935 38.9904C30.7408 39.5771 30.1884 40.0169 29.5375 40.229L28.6241 40.5266C28.0391 40.7173 27.5317 41.0926 27.1781 41.5962L25.4599 44.0427C25.3608 44.1838 25.235 44.304 25.0895 44.3964C24.9439 44.4888 24.7816 44.5517 24.6118 44.5814C24.442 44.6111 24.268 44.607 24.0998 44.5695C23.9315 44.5319 23.7723 44.4616 23.6313 44.3625Z" fill="#02A437"/>
</svg>
