<svg width="36" height="35" viewBox="0 0 36 35" fill="none" xmlns="http://www.w3.org/2000/svg">
<path d="M32.1379 0H3.86207C1.72911 0 0 1.68108 0 3.75479V31.2452C0 33.3189 1.72911 35 3.86207 35H32.1379C34.2709 35 36 33.3189 36 31.2452V3.75479C36 1.68108 34.2709 0 32.1379 0Z" fill="#20A0E1"/>
<path fill-rule="evenodd" clip-rule="evenodd" d="M23.7241 13.4098C23.862 13.1416 24.1379 13.1416 24.1379 12.7393C23.5862 12.7393 23.1724 13.1416 22.8965 13.2757L13.6552 18.9078L15.4483 24.4059C15.7241 24.1377 15.7241 23.8695 15.7241 23.3331C15.7241 23.0649 15.862 22.5285 15.862 22.2603V21.3216C16 21.1875 16 21.0534 16 20.7852C16 20.6511 16 20.517 16 20.3829C16.1379 20.1147 16.2758 20.2488 16.4138 19.9806C18.4827 17.835 21.3793 15.4213 23.7241 13.4098Z" fill="#CCD8E6"/>
<path fill-rule="evenodd" clip-rule="evenodd" d="M9.10346 17.2987L13.6552 18.9079L23.3104 13.0075C23.5862 12.8734 23.8621 12.7393 24.1379 12.7393C24.1379 13.1416 23.5862 13.5439 23.3104 13.8121C21.2414 15.5554 17.7931 18.1033 16 20.1148L17.6552 21.3217C17.931 21.3217 18.6207 21.9922 18.7586 22.1263C19.0345 22.2604 20.1379 23.065 20.2759 23.3332C20.5517 23.3332 20.5517 23.4673 20.6897 23.6014L22.069 24.5401C22.6207 24.9424 23.1724 25.6129 24.1379 24.9424L27.1724 11.5324C27.5862 9.25275 26.4828 9.65505 24.9655 10.1914L9.51725 16.2259C8.96552 16.4941 8.4138 17.1646 9.10346 17.2987Z" fill="#FEFEFE"/>
<path fill-rule="evenodd" clip-rule="evenodd" d="M15.4482 24.4059L15.5862 24.54C15.862 24.54 16.1379 24.4059 16.4138 24.1377L18.7586 22.1262C18.6207 21.9921 17.931 21.3216 17.6551 21.3216L16 20.1147L15.4482 24.4059Z" fill="#ABBDD5"/>
<path fill-rule="evenodd" clip-rule="evenodd" d="M36 18.6398L27.0345 9.92334C27.3103 10.1915 27.3103 10.5938 27.1724 11.5325L24.1379 24.9425C23.1724 25.613 22.6207 24.9425 22.0689 24.5402L20.6896 23.6015C20.5517 23.4674 20.5517 23.3333 20.2758 23.3333C20.1379 23.0651 19.0345 22.2605 18.7586 22.1264L16.4138 24.1379C16.1379 24.272 15.862 24.4061 15.5862 24.5402L26.4827 35H32.1379L36 31.2452V18.6398Z" fill="#1A82B7"/>
<path fill-rule="evenodd" clip-rule="evenodd" d="M9.10339 17.2988L15.0344 23.1992L13.6551 18.908L9.10339 17.2988Z" fill="#1A82B7"/>
</svg>
