<svg width="189" height="17" viewBox="0 0 189 17" fill="none" xmlns="http://www.w3.org/2000/svg">
<path d="M26.008 8.89C26.6053 9.06733 27.0627 9.35667 27.38 9.758C27.6973 10.1593 27.856 10.654 27.856 11.242C27.856 12.11 27.5247 12.7867 26.862 13.272C26.2087 13.7573 25.2707 14 24.048 14H19.218V4.2H23.782C24.9207 4.2 25.8073 4.41933 26.442 4.858C27.0767 5.29667 27.394 5.922 27.394 6.734C27.394 7.21933 27.2727 7.64867 27.03 8.022C26.7873 8.386 26.4467 8.67533 26.008 8.89ZM21.472 8.26H23.586C24.0807 8.26 24.454 8.162 24.706 7.966C24.958 7.76067 25.084 7.462 25.084 7.07C25.084 6.68733 24.9533 6.39333 24.692 6.188C24.44 5.98267 24.0713 5.88 23.586 5.88H21.472V8.26ZM23.964 12.32C25.028 12.32 25.56 11.9 25.56 11.06C25.56 10.248 25.028 9.842 23.964 9.842H21.472V12.32H23.964ZM36.8036 10.262C36.8036 10.29 36.7896 10.486 36.7616 10.85H31.0636C31.1663 11.3167 31.409 11.6853 31.7916 11.956C32.1743 12.2267 32.6503 12.362 33.2196 12.362C33.6116 12.362 33.957 12.306 34.2556 12.194C34.5636 12.0727 34.8483 11.886 35.1096 11.634L36.2716 12.894C35.5623 13.706 34.5263 14.112 33.1636 14.112C32.3143 14.112 31.563 13.9487 30.9096 13.622C30.2563 13.286 29.7523 12.824 29.3976 12.236C29.043 11.648 28.8656 10.9807 28.8656 10.234C28.8656 9.49667 29.0383 8.834 29.3836 8.246C29.7383 7.64867 30.219 7.18667 30.8256 6.86C31.4416 6.524 32.1276 6.356 32.8836 6.356C33.621 6.356 34.2883 6.51467 34.8856 6.832C35.483 7.14933 35.9496 7.60667 36.2856 8.204C36.631 8.792 36.8036 9.478 36.8036 10.262ZM32.8976 8.008C32.403 8.008 31.9876 8.148 31.6516 8.428C31.3156 8.708 31.1103 9.09067 31.0356 9.576H34.7456C34.671 9.1 34.4656 8.722 34.1296 8.442C33.7936 8.15267 33.383 8.008 32.8976 8.008ZM42.9157 6.356C43.6157 6.356 44.2504 6.51933 44.8197 6.846C45.3984 7.16333 45.8511 7.616 46.1777 8.204C46.5044 8.78267 46.6677 9.45933 46.6677 10.234C46.6677 11.0087 46.5044 11.69 46.1777 12.278C45.8511 12.8567 45.3984 13.3093 44.8197 13.636C44.2504 13.9533 43.6157 14.112 42.9157 14.112C41.9544 14.112 41.1984 13.8087 40.6477 13.202V16.716H38.4637V6.468H40.5497V7.336C41.0911 6.68267 41.8797 6.356 42.9157 6.356ZM42.5377 12.32C43.0977 12.32 43.5551 12.1333 43.9097 11.76C44.2737 11.3773 44.4557 10.8687 44.4557 10.234C44.4557 9.59933 44.2737 9.09533 43.9097 8.722C43.5551 8.33933 43.0977 8.148 42.5377 8.148C41.9777 8.148 41.5157 8.33933 41.1517 8.722C40.7971 9.09533 40.6197 9.59933 40.6197 10.234C40.6197 10.8687 40.7971 11.3773 41.1517 11.76C41.5157 12.1333 41.9777 12.32 42.5377 12.32ZM48.1984 6.468H50.3684V9.408H53.6444V6.468H55.8284V14H53.6444V11.186H50.3684V14H48.1984V6.468ZM65.4651 6.468L62.0631 14.462C61.7178 15.33 61.2885 15.9413 60.7751 16.296C60.2711 16.6507 59.6598 16.828 58.9411 16.828C58.5491 16.828 58.1618 16.7673 57.7791 16.646C57.3965 16.5247 57.0838 16.3567 56.8411 16.142L57.6391 14.588C57.8071 14.7373 57.9985 14.854 58.2131 14.938C58.4371 15.022 58.6565 15.064 58.8711 15.064C59.1698 15.064 59.4125 14.9893 59.5991 14.84C59.7858 14.7 59.9538 14.462 60.1031 14.126L60.1311 14.056L56.8691 6.468H59.1231L61.2371 11.578L63.3651 6.468H65.4651ZM72.9151 8.26H70.3671V14H68.1971V8.26H65.6491V6.468H72.9151V8.26ZM78.1533 8.876C79.1333 8.88533 79.8846 9.10933 80.4073 9.548C80.93 9.97733 81.1913 10.5887 81.1913 11.382C81.1913 12.2127 80.8973 12.8613 80.3093 13.328C79.7306 13.7853 78.914 14.014 77.8593 14.014L74.0793 14V6.468H76.2493V8.876H78.1533ZM77.6633 12.46C78.0833 12.4693 78.4053 12.3807 78.6293 12.194C78.8533 12.0073 78.9653 11.7273 78.9653 11.354C78.9653 10.99 78.8533 10.724 78.6293 10.556C78.4146 10.388 78.0926 10.2993 77.6633 10.29L76.2493 10.276V12.46H77.6633ZM86.1399 14.112C85.3372 14.112 84.6139 13.9487 83.9699 13.622C83.3352 13.286 82.8359 12.824 82.4719 12.236C82.1172 11.648 81.9399 10.9807 81.9399 10.234C81.9399 9.48733 82.1172 8.82 82.4719 8.232C82.8359 7.644 83.3352 7.18667 83.9699 6.86C84.6139 6.524 85.3372 6.356 86.1399 6.356C86.9332 6.356 87.6239 6.524 88.2119 6.86C88.8092 7.18667 89.2432 7.658 89.5139 8.274L87.8199 9.184C87.4279 8.49333 86.8632 8.148 86.1259 8.148C85.5565 8.148 85.0852 8.33467 84.7119 8.708C84.3385 9.08133 84.1519 9.59 84.1519 10.234C84.1519 10.878 84.3385 11.3867 84.7119 11.76C85.0852 12.1333 85.5565 12.32 86.1259 12.32C86.8725 12.32 87.4372 11.9747 87.8199 11.284L89.5139 12.208C89.2432 12.8053 88.8092 13.272 88.2119 13.608C87.6239 13.944 86.9332 14.112 86.1399 14.112ZM97.3416 6.468V14H95.3956V11.844H93.7856L92.3576 14H90.0336L91.7556 11.536C91.2329 11.3307 90.8316 11.0367 90.5516 10.654C90.2809 10.262 90.1456 9.79067 90.1456 9.24C90.1456 8.35333 90.4629 7.672 91.0976 7.196C91.7416 6.71067 92.6236 6.468 93.7436 6.468H97.3416ZM93.7856 8.246C93.3189 8.246 92.9643 8.33 92.7216 8.498C92.4883 8.666 92.3716 8.93667 92.3716 9.31C92.3716 9.68333 92.4836 9.95867 92.7076 10.136C92.9409 10.304 93.2909 10.388 93.7576 10.388H95.3956V8.246H93.7856ZM103.405 6.468H105.575V9.408H108.851V6.468H111.035V14H108.851V11.186H105.575V14H103.405V6.468ZM116.052 6.356C117.219 6.356 118.115 6.636 118.74 7.196C119.366 7.74667 119.678 8.582 119.678 9.702V14H117.634V13.062C117.224 13.762 116.458 14.112 115.338 14.112C114.76 14.112 114.256 14.014 113.826 13.818C113.406 13.622 113.084 13.3513 112.86 13.006C112.636 12.6607 112.524 12.2687 112.524 11.83C112.524 11.13 112.786 10.5793 113.308 10.178C113.84 9.77667 114.657 9.576 115.758 9.576H117.494C117.494 9.1 117.35 8.736 117.06 8.484C116.771 8.22267 116.337 8.092 115.758 8.092C115.357 8.092 114.96 8.15733 114.568 8.288C114.186 8.40933 113.859 8.57733 113.588 8.792L112.804 7.266C113.215 6.97667 113.705 6.75267 114.274 6.594C114.853 6.43533 115.446 6.356 116.052 6.356ZM115.884 12.642C116.258 12.642 116.589 12.558 116.878 12.39C117.168 12.2127 117.373 11.956 117.494 11.62V10.85H115.996C115.1 10.85 114.652 11.144 114.652 11.732C114.652 12.012 114.76 12.236 114.974 12.404C115.198 12.5627 115.502 12.642 115.884 12.642ZM131.574 8.26H127.71V14H125.54V6.468H131.574V8.26ZM139.409 6.468V14H137.225V8.26H134.845L134.775 9.59C134.737 10.5793 134.644 11.4007 134.495 12.054C134.345 12.7073 134.103 13.2207 133.767 13.594C133.431 13.9673 132.964 14.154 132.367 14.154C132.049 14.154 131.671 14.098 131.233 13.986L131.345 12.194C131.494 12.2127 131.601 12.222 131.667 12.222C131.993 12.222 132.236 12.1053 132.395 11.872C132.563 11.6293 132.675 11.326 132.731 10.962C132.787 10.5887 132.829 10.0987 132.857 9.492L132.969 6.468H139.409ZM144.435 6.356C145.602 6.356 146.498 6.636 147.123 7.196C147.748 7.74667 148.061 8.582 148.061 9.702V14H146.017V13.062C145.606 13.762 144.841 14.112 143.721 14.112C143.142 14.112 142.638 14.014 142.209 13.818C141.789 13.622 141.467 13.3513 141.243 13.006C141.019 12.6607 140.907 12.2687 140.907 11.83C140.907 11.13 141.168 10.5793 141.691 10.178C142.223 9.77667 143.04 9.576 144.141 9.576H145.877C145.877 9.1 145.732 8.736 145.443 8.484C145.154 8.22267 144.72 8.092 144.141 8.092C143.74 8.092 143.343 8.15733 142.951 8.288C142.568 8.40933 142.242 8.57733 141.971 8.792L141.187 7.266C141.598 6.97667 142.088 6.75267 142.657 6.594C143.236 6.43533 143.828 6.356 144.435 6.356ZM144.267 12.642C144.64 12.642 144.972 12.558 145.261 12.39C145.55 12.2127 145.756 11.956 145.877 11.62V10.85H144.379C143.483 10.85 143.035 11.144 143.035 11.732C143.035 12.012 143.142 12.236 143.357 12.404C143.581 12.5627 143.884 12.642 144.267 12.642ZM155.712 10.066C156.599 10.3647 157.042 10.962 157.042 11.858C157.042 12.5393 156.786 13.0667 156.272 13.44C155.759 13.8133 154.994 14 153.976 14H149.958V6.468H153.808C154.751 6.468 155.488 6.64067 156.02 6.986C156.552 7.322 156.818 7.798 156.818 8.414C156.818 8.78733 156.72 9.11867 156.524 9.408C156.338 9.688 156.067 9.90733 155.712 10.066ZM151.96 9.562H153.612C154.378 9.562 154.76 9.29133 154.76 8.75C154.76 8.218 154.378 7.952 153.612 7.952H151.96V9.562ZM153.794 12.516C154.597 12.516 154.998 12.2407 154.998 11.69C154.998 11.4007 154.905 11.1907 154.718 11.06C154.532 10.92 154.238 10.85 153.836 10.85H151.96V12.516H153.794ZM158.667 6.468H160.837V9.408H164.113V6.468H166.297V14H164.113V11.186H160.837V14H158.667V6.468ZM175.934 6.468L172.532 14.462C172.187 15.33 171.757 15.9413 171.244 16.296C170.74 16.6507 170.129 16.828 169.41 16.828C169.018 16.828 168.631 16.7673 168.248 16.646C167.865 16.5247 167.553 16.3567 167.31 16.142L168.108 14.588C168.276 14.7373 168.467 14.854 168.682 14.938C168.906 15.022 169.125 15.064 169.34 15.064C169.639 15.064 169.881 14.9893 170.068 14.84C170.255 14.7 170.423 14.462 170.572 14.126L170.6 14.056L167.338 6.468H169.592L171.706 11.578L173.834 6.468H175.934ZM184.114 6.356C184.879 6.356 185.565 6.524 186.172 6.86C186.778 7.18667 187.254 7.644 187.6 8.232C187.945 8.82 188.118 9.48733 188.118 10.234C188.118 10.9807 187.945 11.648 187.6 12.236C187.254 12.824 186.778 13.286 186.172 13.622C185.565 13.9487 184.879 14.112 184.114 14.112C183.451 14.112 182.844 13.9907 182.294 13.748C181.743 13.496 181.286 13.146 180.922 12.698C180.558 12.2407 180.315 11.718 180.194 11.13H179.158V14H176.988V6.468H179.158V9.24H180.208C180.422 8.36267 180.88 7.66267 181.58 7.14C182.28 6.61733 183.124 6.356 184.114 6.356ZM184.114 12.32C184.646 12.32 185.084 12.1333 185.43 11.76C185.784 11.3773 185.962 10.8687 185.962 10.234C185.962 9.59 185.784 9.08133 185.43 8.708C185.084 8.33467 184.646 8.148 184.114 8.148C183.572 8.148 183.124 8.33467 182.77 8.708C182.424 9.08133 182.252 9.59 182.252 10.234C182.252 10.8687 182.424 11.3773 182.77 11.76C183.124 12.1333 183.572 12.32 184.114 12.32Z" fill="black"/>
<path d="M10 3L2 9L10 15" stroke="black" stroke-width="2"/>
</svg>
