<svg width="36" height="37" viewBox="0 0 36 37" fill="none" xmlns="http://www.w3.org/2000/svg">
<path d="M36 31.2292C36 33.9336 33.762 36.125 31 36.125H5C2.239 36.125 0 33.9336 0 31.2292V5.77083C0 3.06638 2.239 0.875 5 0.875H31C33.762 0.875 36 3.06638 36 5.77083V31.2292Z" fill="#1976D2"/>
<path d="M29.937 12.6651C29.983 12.5172 30.005 12.3801 29.999 12.2577C29.984 11.9033 29.735 11.6458 29.149 11.6458H26.531C25.87 11.6458 25.565 12.0374 25.387 12.4301C25.387 12.4301 23.755 15.7191 21.874 17.8879C21.264 18.5156 20.954 18.4999 20.624 18.4999C20.447 18.4999 20 18.2904 20 17.7156V12.6386C20 11.9591 19.827 11.6458 19.268 11.6458H14.619C14.212 11.6458 14 11.9591 14 12.2734C14 12.9265 14.898 13.0832 15 14.9132V18.4608C15 19.3224 14.847 19.4791 14.517 19.4791C13.627 19.4791 11.875 16.5416 10.702 12.6915C10.448 11.9336 10.194 11.6458 9.533 11.6458H6.89C6.127 11.6458 6 12.012 6 12.4036C6 13.1096 6.6 16.9264 9.875 21.315C12.25 24.4973 15.379 26.3333 18.149 26.3333C19.827 26.3333 19.999 25.9151 19.999 25.262V22.352C20 21.5676 20.183 21.4374 20.717 21.4374C21.098 21.4374 21.875 21.6822 23.375 23.3958C25.105 25.3717 25.419 26.3333 26.411 26.3333H29.029C29.637 26.3333 29.986 26.0836 30 25.5989C30.003 25.4755 29.985 25.3374 29.944 25.1837C29.75 24.6197 28.86 23.241 27.75 21.927C27.135 21.1995 26.528 20.4788 26.249 20.0871C26.062 19.8316 25.991 19.6514 26 19.4791C26.009 19.2979 26.105 19.1256 26.249 18.8847C26.223 18.8847 29.607 14.2327 29.937 12.6651Z" fill="white"/>
</svg>
